<svg xmlns="http://www.w3.org/2000/svg" version="1.1" xmlns:xlink="http://www.w3.org/1999/xlink" width="1500" height="1500" viewBox="0 0 1500 1500"><rect width="1500" height="1500" x="0" y="0" id="background" stroke="transparent" fill="#001f3f"></rect><svg xml:space="preserve" width="1000" height="1000" data-version="2" data-id="lg_ivH2SziktVoF3tYOqV" viewBox="0 0 562 120" x="250" y="250"><rect width="100%" height="100%" fill="transparent"></rect><circle r="59.32" fill="#fff" transform="translate(51.52 46.66)scale(.7718)"></circle><path fill="#fff" d="m115.84 48.552-.9 12.51h-3.8l2.3-31.68h4.84l4.18 11.56 5.08 14.76q2.73-7.71 5.36-14.76l4.37-11.56h4.84l2.77 31.68h-3.8L140 48.552l-1.13-14.05q-2.49 6.96-5.13 14.05l-4.41 11.8h-3.62l-4.19-11.8-4.79-13.77q0 1.84-.89 13.77"></path><rect width="33.74" height="31.68" x="-16.87" y="-15.84" fill="none" rx="0" ry="0" transform="translate(128.51 45.72)"></rect><path fill="#fff" d="M172.52 49.212q0 5.31-3.01 8.79-3.01 3.48-8.27 3.48-5.12 0-8.11-3.45-2.98-3.46-2.98-8.72 0-5.31 3.08-8.86 3.07-3.55 8.01-3.55 5.4 0 8.34 3.48 2.94 3.47 2.94 8.83m-18.52.05q0 3.71 1.98 6.32 1.97 2.61 5.26 2.61 3.57 0 5.5-2.56 1.93-2.56 1.93-6.37 0-3.95-1.84-6.51-1.83-2.56-5.59-2.56-3.38 0-5.31 2.63-1.93 2.63-1.93 6.44"></path><rect width="22.37" height="24.58" x="-11.19" y="-12.29" fill="none" rx="0" ry="0" transform="translate(161.84 49.7)"></rect><path fill="#fff" d="M196.77 44.752v16.31h-3.71v-15.42q0-2.58-1.34-3.99-1.34-1.41-3.5-1.41-2.63 0-4.61 2.02-1.97 2.02-1.97 5.78v13.02h-3.67v-33.23h3.67v13.53q2.11-4.46 7.52-4.46 3.43 0 5.52 2.11 2.09 2.12 2.09 5.74"></path><rect width="18.8" height="33.23" x="-9.4" y="-16.61" fill="none" rx="0" ry="0" transform="translate(187.87 44.95)"></rect><path fill="#fff" d="M210.64 58.192q2.53 0 4.04-1.43 1.5-1.44 1.5-3.65v-3.05h-4.13q-3.01 0-4.52 1.17-1.5 1.18-1.5 2.96 0 1.79 1.18 2.9 1.17 1.1 3.43 1.1m5.59 2.87v-2.82q-1.83 3.05-6.67 3.05-3.34 0-5.39-1.97-2.04-1.98-2.04-4.98 0-3.44 2.61-5.34t7.12-1.9h4.32v-1.22q0-2.82-1.27-4.26-1.27-1.43-4.27-1.43-3.81 0-6.77 2.02v-3.71q2.68-1.65 7.05-1.65 8.98 0 8.98 9.12v15.09z"></path><rect width="17.77" height="24.44" x="-8.88" y="-12.22" fill="none" rx="0" ry="0" transform="translate(211.51 49.57)"></rect><path fill="#fff" d="M258.34 44.702v16.36h-3.71v-15.42q0-5.4-4.56-5.4-2.26 0-4.04 2.04-1.79 2.04-1.79 5.76v13.02h-3.71v-15.42q0-5.4-4.56-5.4-2.26 0-4.04 2.04-1.79 2.04-1.79 5.76v13.02h-3.66v-23.83h3.66v3.85q1.98-4.18 6.72-4.18 5.5 0 6.96 4.65 1.03-2.25 2.89-3.45 1.86-1.2 4.16-1.2 3.71 0 5.59 2.11 1.88 2.12 1.88 5.69"></path><rect width="31.86" height="24.16" x="-15.93" y="-12.08" fill="none" rx="0" ry="0" transform="translate(242.91 49.48)"></rect><path fill="#fff" d="M282.31 56.362v3.47q-2.77 1.46-6.77 1.46-5.4 0-8.71-3.31-3.32-3.32-3.32-8.77 0-5.68 2.96-8.97 2.96-3.29 7.62-3.29 4.46 0 7.09 2.86 2.64 2.87 2.64 8.13 0 1.51-.24 2.78h-16.26q.42 3.52 2.68 5.4 2.25 1.88 5.92 1.88 3.99 0 6.39-1.64m-8.22-16.17q-2.68 0-4.56 1.93-1.88 1.92-2.21 5.49h12.78v-.94q0-2.96-1.6-4.72-1.59-1.76-4.41-1.76"></path><rect width="20.31" height="24.34" x="-10.15" y="-12.17" fill="none" rx="0" ry="0" transform="translate(274.17 49.62)"></rect><path fill="#fff" d="M291.9 49.402q0 3.85 1.88 6.25t4.75 2.4q2.91 0 4.96-2.16 2.04-2.17 2.04-6.91 0-4.51-2.12-6.63-2.11-2.11-4.65-2.11-2.96 0-4.91 2.37-1.95 2.37-1.95 6.79m17.34-21.57v33.23h-3.71v-3.53q-2.54 3.9-7.33 3.9-4.75 0-7.45-3.52-2.7-3.53-2.7-8.56 0-5.59 2.86-9.04 2.87-3.46 7.38-3.46 4.65 0 7.24 4v-13.02z"></path><rect width="21.19" height="33.6" x="-10.6" y="-16.8" fill="none" rx="0" ry="0" transform="translate(299.14 45.13)"></rect><path fill="#fff" d="m334.39 47.712-.61 1.78h11.23l-.61-1.83-4.94-15.23q-.56 2.02-5.07 15.28m-1.69 5.03-2.82 8.32h-4.09l11.04-31.68h5.27l10.85 31.68h-4.09l-2.77-8.32z"></path><rect width="27.16" height="31.68" x="-13.58" y="-15.84" fill="none" rx="0" ry="0" transform="translate(339.87 45.72)"></rect><path fill="#fff" d="M373.82 57.722v3.34h-17.15v-2.92l12.07-17.62h-11.6v-3.29h16.02v2.72l-12.22 17.77z"></path><rect width="17.15" height="23.83" x="-8.57" y="-11.91" fill="none" rx="0" ry="0" transform="translate(365.75 49.65)"></rect><path fill="#fff" d="M383.22 37.232v23.83h-3.71v-23.83zm-.14-9.21q.7.7.7 1.73 0 1.04-.7 1.72-.71.68-1.74.68t-1.71-.68q-.69-.68-.69-1.72 0-1.03.69-1.73.68-.71 1.71-.71 1.03 0 1.74.71"></path><rect width="4.84" height="33.75" x="-2.42" y="-16.88" fill="none" rx="0" ry="0" transform="translate(381.86 44.69)"></rect><path fill="#fff" d="M406.06 57.722v3.34h-17.15v-2.92l12.08-17.62h-11.61v-3.29h16.02v2.72l-12.22 17.77z"></path><rect width="17.15" height="23.83" x="-8.57" y="-11.91" fill="none" rx="0" ry="0" transform="translate(397.99 49.65)"></rect><path fill="#fff" d="m447.89 58.422.05.15q-3.81 2.86-9.82 2.86-7.34 0-11.8-4.34-4.47-4.35-4.47-11.92 0-7.19 4.45-11.77 4.44-4.59 11.21-4.59 5.59 0 9.25 2.17v4.09q-3.85-2.54-8.93-2.54-5.31 0-8.64 3.45-3.34 3.46-3.34 9.19 0 5.88 3.29 9.24 3.29 3.36 9.07 3.36 3.2 0 5.92-1.27v-9.87h-6.95v-3.34h10.76v15.13z"></path><rect width="26.09" height="32.62" x="-13.04" y="-16.31" fill="none" rx="0" ry="0" transform="translate(435.4 45.62)"></rect><path fill="#fff" d="M473.04 37.232v23.83h-3.72v-4.14q-1.88 4.42-7.47 4.42-3.52 0-5.57-2.09-2.04-2.09-2.04-5.62v-16.4h3.71v15.46q0 2.59 1.32 3.95 1.31 1.36 3.57 1.36 2.96 0 4.72-2.07 1.76-2.06 1.76-5.59v-13.11z"></path><rect width="18.8" height="24.11" x="-9.4" y="-12.05" fill="none" rx="0" ry="0" transform="translate(464.14 49.79)"></rect><path fill="#fff" d="M497.29 56.362v3.47q-2.77 1.46-6.77 1.46-5.4 0-8.72-3.31-3.31-3.32-3.31-8.77 0-5.68 2.96-8.97 2.96-3.29 7.61-3.29 4.47 0 7.1 2.86 2.63 2.87 2.63 8.13 0 1.51-.23 2.78H482.3q.42 3.52 2.68 5.4 2.25 1.88 5.92 1.88 3.99 0 6.39-1.64m-8.23-16.17q-2.67 0-4.55 1.93-1.88 1.92-2.21 5.49h12.78v-.94q0-2.96-1.6-4.72-1.6-1.76-4.42-1.76"></path><rect width="20.3" height="24.34" x="-10.15" y="-12.17" fill="none" rx="0" ry="0" transform="translate(489.14 49.62)"></rect><path fill="#fff" d="M508.29 57.532v3.53h-3.72v-33.23h3.72v12.97q2.58-3.95 7.24-3.95 4.51 0 7.37 3.46 2.87 3.45 2.87 9.04 0 5.03-2.7 8.56-2.7 3.52-7.45 3.52-4.79 0-7.33-3.9m0-8.55q0 4.74 2.04 6.91 2.05 2.16 4.96 2.16 2.87 0 4.75-2.4t1.88-6.25q0-4.42-1.95-6.79t-4.91-2.37q-2.54 0-4.66 2.11-2.11 2.12-2.11 6.63"></path><rect width="21.2" height="33.6" x="-10.6" y="-16.8" fill="none" rx="0" ry="0" transform="translate(515.67 45.13)"></rect><path fill="#fff" d="M545.56 54.712q0 3.06-2.14 4.84-2.14 1.79-5.85 1.79-4.33 0-7-1.46v-3.62q3.14 1.88 6.76 1.88 2.17 0 3.29-.84 1.13-.85 1.13-2.31 0-1.69-1.24-2.63-1.25-.94-4.16-2.11-2.68-1.04-4.3-2.59-1.63-1.55-1.63-4.18 0-2.96 2.24-4.72 2.23-1.77 5.57-1.77 3.71 0 5.97 1.04v3.52q-2.17-1.31-5.93-1.31-1.88 0-2.98.87-1.11.86-1.11 2.23 0 .84.33 1.48.33.63 1.3 1.24.96.61 1.41.83.44.21 1.95.87 3 1.22 4.7 2.77 1.69 1.55 1.69 4.18"></path><rect width="15.14" height="24.35" x="-7.57" y="-12.18" fill="none" rx="0" ry="0" transform="translate(538.49 49.67)"></rect><path fill="#fff" d="M554.49 37.232v23.83h-3.71v-23.83zm-.14-9.21q.7.7.7 1.73 0 1.04-.7 1.72-.71.68-1.74.68-1.04 0-1.72-.68-.68-.68-.68-1.72 0-1.03.68-1.73.68-.71 1.72-.71 1.03 0 1.74.71"></path><rect width="4.84" height="33.75" x="-2.42" y="-16.88" fill="none" rx="0" ry="0" transform="translate(553.13 44.69)"></rect><path fill="#001f3f" d="m30.04 49.502-.76 10.64h-3.24L28 33.182h4.12l3.56 9.84L40 55.582q2.32-6.56 4.56-12.56l3.72-9.84h4.12l2.36 26.96h-3.24l-.92-10.64-.96-11.96q-2.12 5.92-4.36 11.96l-3.76 10.04h-3.08l-3.56-10.04-4.08-11.72q0 1.56-.76 11.72" paint-order="stroke"></path><rect width="28.72" height="26.96" x="-14.36" y="-13.48" fill="none" rx="0" ry="0" transform="translate(40.9 47.16)"></rect><path fill="#001f3f" d="m66.24 48.782-.52 1.52h9.56l-.52-1.56-4.2-12.96q-.48 1.72-4.32 13m-1.44 4.28-2.4 7.08h-3.48l9.4-26.96h4.48l9.24 26.96h-3.48l-2.36-7.08z" paint-order="stroke"></path><rect width="23.12" height="26.96" x="-11.56" y="-13.48" fill="none" rx="0" ry="0" transform="translate(70.98 47.16)"></rect><path fill="#ed3232" d="M312.04 86.722q3.81 0 5.76 1.86 1.95 1.87 1.95 5.99v13.94h-3.2v-13.73q0-2.67-1.22-4t-3.74-1.33q-3.56 0-5 2.01-1.45 2.01-1.45 5.84v11.21h-3.24v-21.4h2.62l.49 3.08h.17q.69-1.13 1.74-1.9 1.06-.77 2.36-1.17 1.31-.4 2.76-.4"></path><rect width="17.85" height="21.79" x="-8.93" y="-10.89" fill="none" rx="0" ry="0" transform="translate(311.32 98.12)"></rect><path fill="#ed3232" d="M326.43 87.112h3.25v21.4h-3.25zm1.66-8.01q.8 0 1.38.52.58.51.58 1.61 0 1.07-.58 1.6t-1.38.53q-.84 0-1.39-.53-.56-.53-.56-1.6 0-1.1.56-1.61.55-.52 1.39-.52"></path><rect width="3.91" height="29.41" x="-1.96" y="-14.71" fill="none" rx="0" ry="0" transform="translate(328.6 94.3)"></rect><path fill="#ed3232" d="M346.67 86.722q3.81 0 5.76 1.86 1.95 1.87 1.95 5.99v13.94h-3.2v-13.73q0-2.67-1.22-4t-3.74-1.33q-3.56 0-5 2.01-1.45 2.01-1.45 5.84v11.21h-3.24v-21.4h2.62l.49 3.08h.17q.69-1.13 1.74-1.9t2.36-1.17q1.31-.4 2.76-.4"></path><rect width="17.85" height="21.79" x="-8.93" y="-10.89" fill="none" rx="0" ry="0" transform="translate(345.95 98.12)"></rect><path fill="#ed3232" d="M358.48 118.122q-.99 0-1.73-.14-.75-.15-1.29-.35v-2.63q.6.19 1.23.3.62.11 1.4.11 1.33 0 2.15-.75.82-.74.82-2.69v-24.86h3.24v24.78q0 1.95-.62 3.35-.63 1.4-1.92 2.14-1.28.74-3.28.74m2.29-36.89q0-1.1.56-1.61.55-.52 1.39-.52.8 0 1.38.52.58.51.58 1.61 0 1.07-.58 1.6t-1.38.53q-.84 0-1.39-.53-.56-.53-.56-1.6"></path><rect width="9.22" height="39.02" x="-4.61" y="-19.51" fill="none" rx="0" ry="0" transform="translate(360.57 99.11)"></rect><path fill="#ed3232" d="M379.17 86.752q3.83 0 5.68 1.72 1.86 1.72 1.86 5.49v14.55h-2.37l-.62-3.16h-.16q-.9 1.17-1.87 1.96-.98.79-2.26 1.19-1.28.4-3.13.4-1.96 0-3.47-.68-1.51-.68-2.38-2.07-.87-1.39-.87-3.52 0-3.2 2.54-4.92 2.54-1.72 7.73-1.87l3.69-.16v-1.31q0-2.77-1.19-3.88-1.19-1.12-3.36-1.12-1.68 0-3.2.49-1.53.49-2.89 1.15l-1-2.46q1.45-.74 3.32-1.27 1.88-.53 3.95-.53m4.33 13.19v-1.97l-3.26.13q-4 .16-5.64 1.31-1.64 1.15-1.64 3.26 0 1.84 1.11 2.72 1.11.88 2.95.88 2.85 0 4.67-1.59 1.81-1.58 1.81-4.74"></path><rect width="17.13" height="22.15" x="-8.56" y="-11.07" fill="none" rx="0" ry="0" transform="translate(378.64 98.33)"></rect><path fill="#ed3232" d="M403.78 78.122h3.24v7.6q0 1.31-.07 2.54l-.11 1.91h.18q.88-1.44 2.54-2.44 1.66-.99 4.24-.99 4.02 0 6.41 2.78 2.39 2.78 2.39 8.27 0 3.61-1.09 6.09t-3.08 3.75q-2 1.27-4.71 1.27-2.54 0-4.17-.94-1.63-.95-2.51-2.32h-.26l-.66 2.87h-2.34zm9.49 11.33q-2.33 0-3.69.91-1.37.91-1.97 2.73-.59 1.83-.59 4.62v.18q0 4.04 1.35 6.18 1.34 2.14 4.9 2.14 2.99 0 4.48-2.19 1.5-2.19 1.5-6.25 0-4.14-1.48-6.23-1.47-2.09-4.5-2.09"></path><rect width="18.82" height="30.78" x="-9.41" y="-15.39" fill="none" rx="0" ry="0" transform="translate(413.69 94.01)"></rect><path fill="#ed3232" d="M436.26 86.752q3.83 0 5.68 1.72 1.86 1.72 1.86 5.49v14.55h-2.37l-.62-3.16h-.16q-.9 1.17-1.87 1.96-.98.79-2.26 1.19-1.28.4-3.13.4-1.96 0-3.47-.68-1.51-.68-2.38-2.07-.87-1.39-.87-3.52 0-3.2 2.54-4.92 2.54-1.72 7.73-1.87l3.69-.16v-1.31q0-2.77-1.19-3.88-1.19-1.12-3.36-1.12-1.68 0-3.2.49-1.53.49-2.89 1.15l-1-2.46q1.45-.74 3.32-1.27 1.88-.53 3.95-.53m4.33 13.19v-1.97l-3.26.13q-4 .16-5.64 1.31-1.64 1.15-1.64 3.26 0 1.84 1.11 2.72 1.11.88 2.95.88 2.85 0 4.67-1.59 1.81-1.58 1.81-4.74"></path><rect width="17.13" height="22.15" x="-8.56" y="-11.07" fill="none" rx="0" ry="0" transform="translate(435.74 98.33)"></rect><path fill="#ed3232" d="M459.05 108.902q-2.89 0-5.1-1.19-2.2-1.19-3.44-3.63-1.23-2.44-1.23-6.15 0-3.89 1.3-6.36t3.59-3.66q2.28-1.19 5.19-1.19 1.6 0 3.1.32 1.49.32 2.45.81l-.98 2.71q-.97-.39-2.25-.7-1.28-.31-2.4-.31-2.22 0-3.7.95-1.47.96-2.2 2.82-.74 1.85-.74 4.57 0 2.6.72 4.43.71 1.84 2.13 2.8 1.41.97 3.54.97 1.7 0 3.07-.36 1.36-.36 2.48-.85v2.89q-1.08.55-2.4.84-1.31.29-3.13.29"></path><rect width="15.63" height="22.18" x="-7.82" y="-11.09" fill="none" rx="0" ry="0" transform="translate(457.6 98.31)"></rect><path fill="#ed3232" d="M469.64 78.122h3.22v15.78q0 .78-.06 1.91-.06 1.12-.1 1.98h.14q.41-.51 1.2-1.5.79-1 1.34-1.61l7.11-7.57h3.81l-8.62 9.14 9.24 12.26h-3.91l-7.55-10.13-2.6 2.38v7.75h-3.22z"></path><rect width="17.28" height="30.39" x="-8.64" y="-15.2" fill="none" rx="0" ry="0" transform="translate(478.78 93.82)"></rect><path fill="#ed3232" d="M498.89 86.722q2.74 0 4.69 1.21 1.95 1.21 2.99 3.39 1.03 2.17 1.03 5.08v2.01h-14.78q.06 3.77 1.87 5.75 1.82 1.97 5.12 1.97 2.03 0 3.6-.37 1.56-.37 3.24-1.1v2.86q-1.62.72-3.22 1.05-1.59.33-3.75.33-3.09 0-5.39-1.26-2.29-1.26-3.56-3.7-1.27-2.44-1.27-5.97 0-3.46 1.16-5.99 1.16-2.53 3.28-3.9 2.12-1.36 4.99-1.36m-.04 2.65q-2.59 0-4.14 1.7-1.54 1.7-1.83 4.75h11.33q-.02-1.92-.6-3.37-.58-1.46-1.75-2.27t-3.01-.81"></path><rect width="18.14" height="22.18" x="-9.07" y="-11.09" fill="none" rx="0" ry="0" transform="translate(499.03 98.31)"></rect><path fill="#ed3232" d="M523.25 86.722q3.81 0 5.76 1.86 1.95 1.87 1.95 5.99v13.94h-3.2v-13.73q0-2.67-1.22-4t-3.74-1.33q-3.55 0-5 2.01-1.45 2.01-1.45 5.84v11.21h-3.24v-21.4h2.62l.49 3.08h.17q.69-1.13 1.74-1.9 1.06-.77 2.37-1.17 1.3-.4 2.75-.4"></path><rect width="17.85" height="21.79" x="-8.93" y="-10.89" fill="none" rx="0" ry="0" transform="translate(522.53 98.12)"></rect><path fill="#ed3232" d="M545.26 108.902q-4.06 0-6.43-2.77-2.38-2.77-2.38-8.24 0-5.53 2.42-8.35 2.43-2.82 6.45-2.82 1.7 0 2.97.44 1.27.45 2.19 1.21.91.75 1.54 1.71h.23q-.07-.61-.15-1.67-.08-1.05-.08-1.71v-8.58h3.24v30.39h-2.62l-.48-3.04h-.14q-.61.95-1.53 1.73-.93.79-2.21 1.24-1.28.46-3.02.46m.51-2.69q3.44 0 4.86-1.96 1.43-1.95 1.43-5.8v-.58q0-4.08-1.36-6.27-1.36-2.19-4.93-2.19-2.99 0-4.47 2.3-1.49 2.29-1.49 6.26 0 3.94 1.48 6.09 1.47 2.15 4.48 2.15"></path><rect width="18.81" height="30.78" x="-9.4" y="-15.39" fill="none" rx="0" ry="0" transform="translate(546.36 94.01)"></rect></svg></svg>